<?xml version="1.0" encoding="utf-8"?>
<!-- Generator: Adobe Illustrator 23.0.4, SVG Export Plug-In . SVG Version: 6.00 Build 0)  -->
<svg version="1.1" id="Layer_1" xmlns="http://www.w3.org/2000/svg" xmlns:xlink="http://www.w3.org/1999/xlink" x="0px" y="0px"
	 viewBox="0 0 422.35 374.12" style="enable-background:new 0 0 422.35 374.12;" xml:space="preserve">
<style type="text/css">
	.st0{fill:none;stroke:#000000;stroke-width:2;}
	.st1{fill:#29ABE2;}
	.st2{fill:none;stroke:#000000;stroke-width:3;}
	.st3{fill:none;stroke:#9900CC;stroke-width:3;stroke-dasharray:6;}
	.st4{fill:#FFFFFF;stroke:#00FF00;stroke-width:1.4;}
	.st5{fill:none;stroke:#9900CC;stroke-width:3.1633;}
	.st6{fill:none;stroke:#9900CC;stroke-width:2.9592;stroke-dasharray:8.4509;}
	.st7{fill:#FF0000;}
	.st8{fill:none;}
</style>
<polyline class="st0" points="229.06,188.41 229.06,230.41 187.06,230.41 "/>
<path class="st1" d="M256.56,334.21l76,0.95l-2.5-161.75c-3.43-9.69-5.58-18.94-10-28c-17-34.83-45.4-60.01-67-40L256.56,334.21z"/>
<path class="st2" d="M87.75,88.33c4.71,41.47,14.23,131.99,62.13,150.27c50.23,19.17,67.46-83.43,82.03-109.71
	c23.46-42.31,58.88-37.65,80.42,2.49c32.25,60.12,36.65,137.36,35,204.05"/>
<g>
	<g>
		<polyline class="st0" points="63.06,26.41 63.06,335.41 392.06,335.41 		"/>
		<path d="M395.37,333.98c-2.31-0.7-3.82-1.34-5.68-2.09v7.06c0.66-0.32,3.36-1.39,5.68-2.09c2.48-0.75,4.72-1.26,6.18-1.44
			C400.09,335.24,397.84,334.72,395.37,333.98z"/>
		<path d="M61.62,23.1c-0.7,2.31-1.34,3.82-2.09,5.68h7.06c-0.32-0.66-1.39-3.36-2.09-5.68c-0.75-2.48-1.26-4.72-1.44-6.18
			C62.88,18.38,62.37,20.63,61.62,23.1z"/>
	</g>
</g>
<g>
	<path d="M388.89,311.22l-3.41-4.94h1.71c0.15,0,0.25,0.02,0.32,0.07c0.07,0.05,0.13,0.11,0.18,0.2l2.48,3.8
		c0.06-0.19,0.15-0.37,0.26-0.56l2.18-3.2c0.07-0.09,0.13-0.17,0.2-0.22s0.15-0.08,0.25-0.08h1.64l-3.41,4.84l3.55,5.29h-1.71
		c-0.15,0-0.26-0.04-0.35-0.12c-0.08-0.08-0.15-0.16-0.21-0.25l-2.55-3.97c-0.05,0.19-0.12,0.37-0.21,0.52l-2.36,3.45
		c-0.07,0.09-0.14,0.18-0.22,0.25c-0.08,0.08-0.18,0.12-0.31,0.12h-1.59L388.89,311.22z"/>
</g>
<g>
	<path d="M82.92,36.41V27.8l-1.12-0.13c-0.14-0.03-0.26-0.08-0.35-0.15s-0.14-0.17-0.14-0.31v-0.73h1.6V25.5
		c0-0.58,0.08-1.09,0.25-1.54c0.16-0.45,0.4-0.83,0.7-1.14c0.3-0.31,0.67-0.54,1.09-0.7c0.43-0.16,0.91-0.24,1.44-0.24
		c0.45,0,0.87,0.07,1.26,0.2l-0.04,0.89c-0.01,0.13-0.06,0.21-0.17,0.24c-0.11,0.03-0.26,0.04-0.45,0.04h-0.31
		c-0.31,0-0.58,0.04-0.83,0.12c-0.25,0.08-0.46,0.21-0.65,0.39c-0.18,0.18-0.32,0.42-0.42,0.71c-0.1,0.29-0.15,0.66-0.15,1.09v0.93
		h2.93v1.29h-2.87v8.64H82.92z"/>
	<path d="M90.69,30.12c0,1.43,0.18,2.81,0.55,4.16c0.37,1.34,0.9,2.62,1.59,3.84c0.04,0.07,0.07,0.14,0.08,0.19
		c0.01,0.05,0.02,0.11,0.02,0.16c0,0.09-0.02,0.17-0.07,0.23c-0.05,0.06-0.11,0.11-0.18,0.16l-0.79,0.48
		c-0.5-0.77-0.92-1.53-1.27-2.28s-0.63-1.51-0.85-2.27c-0.22-0.76-0.38-1.52-0.47-2.29c-0.1-0.77-0.15-1.56-0.15-2.38
		c0-0.81,0.05-1.6,0.15-2.37c0.1-0.77,0.26-1.54,0.47-2.29c0.22-0.76,0.5-1.51,0.85-2.27c0.35-0.75,0.77-1.52,1.27-2.29l0.79,0.49
		c0.07,0.05,0.13,0.1,0.18,0.16c0.05,0.06,0.07,0.14,0.07,0.23c0,0.1-0.03,0.21-0.1,0.34c-0.7,1.21-1.23,2.49-1.6,3.84
		C90.87,27.31,90.69,28.69,90.69,30.12z"/>
	<path d="M97.63,31.22l-3.41-4.94h1.71c0.15,0,0.25,0.02,0.32,0.07c0.07,0.05,0.13,0.11,0.18,0.2l2.48,3.8
		c0.06-0.19,0.15-0.37,0.26-0.56l2.18-3.2c0.07-0.09,0.13-0.17,0.2-0.23c0.07-0.06,0.15-0.08,0.25-0.08h1.64l-3.41,4.84l3.55,5.29
		h-1.71c-0.15,0-0.26-0.04-0.35-0.12c-0.08-0.08-0.15-0.16-0.2-0.25l-2.55-3.97c-0.05,0.19-0.12,0.37-0.21,0.52l-2.36,3.45
		c-0.07,0.09-0.14,0.18-0.21,0.25c-0.08,0.08-0.18,0.12-0.32,0.12h-1.59L97.63,31.22z"/>
	<path d="M106.86,30.12c0-1.43-0.18-2.81-0.54-4.16c-0.36-1.35-0.9-2.63-1.59-3.84c-0.07-0.13-0.1-0.24-0.1-0.34
		c0-0.09,0.02-0.17,0.07-0.23c0.05-0.06,0.11-0.11,0.18-0.16l0.79-0.49c0.5,0.77,0.92,1.54,1.27,2.29c0.35,0.75,0.63,1.51,0.85,2.27
		c0.22,0.76,0.38,1.52,0.48,2.29c0.1,0.77,0.15,1.56,0.15,2.37c0,0.81-0.05,1.6-0.15,2.38c-0.1,0.77-0.26,1.54-0.48,2.29
		c-0.22,0.76-0.5,1.52-0.85,2.27s-0.77,1.51-1.27,2.28l-0.79-0.48c-0.07-0.05-0.13-0.1-0.18-0.16c-0.05-0.06-0.07-0.14-0.07-0.23
		c0-0.05,0.01-0.11,0.02-0.16c0.01-0.05,0.04-0.12,0.08-0.19c0.69-1.22,1.22-2.5,1.59-3.84C106.67,32.93,106.86,31.55,106.86,30.12z
		"/>
</g>
<g>
	<path d="M13.74,209.78h6.2v1.63H11.8v-14.33h1.94V209.78z"/>
	<path d="M24.18,198.1c0,0.17-0.03,0.33-0.1,0.48c-0.07,0.15-0.16,0.28-0.28,0.4s-0.25,0.21-0.4,0.27c-0.15,0.07-0.32,0.1-0.49,0.1
		s-0.33-0.03-0.48-0.1c-0.15-0.07-0.28-0.16-0.4-0.27c-0.12-0.12-0.21-0.25-0.28-0.4c-0.07-0.15-0.1-0.31-0.1-0.48
		s0.03-0.34,0.1-0.5c0.07-0.16,0.16-0.29,0.28-0.41c0.12-0.12,0.25-0.21,0.4-0.28c0.15-0.07,0.31-0.1,0.48-0.1s0.34,0.03,0.49,0.1
		c0.15,0.07,0.29,0.16,0.4,0.28s0.21,0.25,0.28,0.41C24.14,197.76,24.18,197.93,24.18,198.1z M23.78,201.28v10.13H22v-10.13H23.78z"
		/>
	<path d="M26.92,211.41v-10.13h1.06c0.25,0,0.41,0.12,0.48,0.37l0.13,1.04c0.37-0.46,0.79-0.84,1.25-1.13
		c0.46-0.29,1-0.44,1.62-0.44c0.69,0,1.24,0.19,1.67,0.57c0.42,0.38,0.73,0.89,0.92,1.54c0.14-0.37,0.32-0.68,0.55-0.95
		s0.49-0.49,0.77-0.66s0.59-0.3,0.92-0.38s0.65-0.12,0.99-0.12c0.53,0,1.01,0.08,1.42,0.25s0.77,0.42,1.06,0.75s0.51,0.73,0.67,1.21
		s0.23,1.02,0.23,1.63v6.45h-1.78v-6.45c0-0.79-0.17-1.4-0.52-1.8c-0.35-0.41-0.85-0.62-1.51-0.62c-0.29,0-0.57,0.05-0.83,0.16
		c-0.26,0.1-0.5,0.25-0.69,0.46c-0.2,0.2-0.36,0.45-0.48,0.75c-0.12,0.3-0.18,0.65-0.18,1.05v6.45h-1.78v-6.45
		c0-0.81-0.16-1.42-0.49-1.82s-0.8-0.6-1.43-0.6c-0.44,0-0.85,0.12-1.23,0.35c-0.38,0.24-0.72,0.56-1.04,0.97v7.55H26.92z"/>
	<path d="M45.72,198.1c0,0.17-0.03,0.33-0.1,0.48c-0.07,0.15-0.16,0.28-0.28,0.4c-0.12,0.12-0.25,0.21-0.41,0.27
		c-0.15,0.07-0.32,0.1-0.49,0.1s-0.33-0.03-0.49-0.1c-0.15-0.07-0.28-0.16-0.4-0.27s-0.21-0.25-0.27-0.4
		c-0.07-0.15-0.1-0.31-0.1-0.48s0.03-0.34,0.1-0.5c0.07-0.16,0.16-0.29,0.27-0.41s0.25-0.21,0.4-0.28c0.15-0.07,0.31-0.1,0.49-0.1
		s0.34,0.03,0.49,0.1c0.15,0.07,0.29,0.16,0.41,0.28c0.12,0.12,0.21,0.25,0.28,0.41C45.68,197.76,45.72,197.93,45.72,198.1z
		 M45.32,201.28v10.13h-1.78v-10.13H45.32z"/>
	<path d="M51.53,211.57c-0.8,0-1.42-0.22-1.85-0.67c-0.43-0.45-0.65-1.09-0.65-1.93v-6.2h-1.22c-0.11,0-0.2-0.03-0.27-0.09
		c-0.07-0.06-0.11-0.16-0.11-0.29v-0.71l1.66-0.21l0.41-3.13c0.01-0.1,0.06-0.18,0.13-0.25c0.07-0.06,0.17-0.09,0.28-0.09h0.9v3.49
		h2.9v1.29h-2.9v6.08c0,0.43,0.1,0.74,0.31,0.95c0.21,0.21,0.47,0.31,0.8,0.31c0.19,0,0.35-0.03,0.48-0.08s0.26-0.1,0.35-0.17
		c0.1-0.06,0.19-0.11,0.26-0.17c0.07-0.05,0.13-0.07,0.19-0.07c0.09,0,0.18,0.06,0.25,0.17l0.52,0.85
		c-0.31,0.29-0.68,0.51-1.11,0.67C52.44,211.49,51.99,211.57,51.53,211.57z"/>
</g>
<g>
	<path d="M125.22,121.25c0,1.07-0.17,2.05-0.51,2.93c-0.34,0.88-0.82,1.63-1.44,2.26c-0.62,0.63-1.36,1.11-2.23,1.46
		c-0.87,0.34-1.83,0.52-2.88,0.52h-5.36v-14.33h5.36c1.05,0,2.01,0.17,2.88,0.52s1.61,0.83,2.23,1.46s1.1,1.38,1.44,2.27
		C125.05,119.2,125.22,120.18,125.22,121.25z M123.23,121.25c0-0.88-0.12-1.67-0.36-2.36c-0.24-0.69-0.58-1.28-1.02-1.76
		s-0.97-0.85-1.6-1.1s-1.32-0.38-2.09-0.38h-3.41v11.19h3.41c0.77,0,1.46-0.13,2.09-0.38c0.63-0.25,1.16-0.62,1.6-1.09
		s0.78-1.06,1.02-1.75C123.11,122.92,123.23,122.13,123.23,121.25z"/>
	<path d="M131.59,118.12c0.61,0,1.17,0.1,1.68,0.31c0.51,0.2,0.96,0.5,1.33,0.88c0.37,0.38,0.66,0.86,0.88,1.42
		c0.21,0.56,0.31,1.21,0.31,1.93c0,0.28-0.03,0.47-0.09,0.56c-0.06,0.09-0.17,0.14-0.34,0.14h-6.74c0.01,0.64,0.1,1.2,0.26,1.67
		c0.16,0.47,0.38,0.87,0.66,1.19c0.28,0.32,0.61,0.55,1,0.71c0.39,0.16,0.82,0.24,1.3,0.24c0.45,0,0.83-0.05,1.15-0.16
		c0.32-0.1,0.6-0.21,0.84-0.33c0.23-0.12,0.43-0.23,0.58-0.33c0.16-0.1,0.29-0.16,0.4-0.16c0.15,0,0.26,0.06,0.34,0.17l0.5,0.65
		c-0.22,0.27-0.48,0.5-0.79,0.69c-0.31,0.2-0.63,0.36-0.98,0.48c-0.35,0.13-0.71,0.22-1.08,0.29c-0.37,0.06-0.74,0.1-1.11,0.1
		c-0.7,0-1.35-0.12-1.94-0.35c-0.59-0.24-1.1-0.58-1.53-1.04c-0.43-0.46-0.77-1.02-1.01-1.7c-0.24-0.67-0.36-1.45-0.36-2.32
		c0-0.71,0.11-1.37,0.33-1.98c0.22-0.61,0.53-1.15,0.93-1.6c0.41-0.45,0.9-0.8,1.49-1.06C130.19,118.25,130.85,118.12,131.59,118.12
		z M131.63,119.43c-0.86,0-1.54,0.25-2.03,0.75c-0.49,0.5-0.8,1.19-0.92,2.06h5.51c0-0.41-0.06-0.79-0.17-1.14
		c-0.11-0.34-0.28-0.64-0.5-0.89c-0.22-0.25-0.49-0.44-0.81-0.58C132.4,119.5,132.04,119.43,131.63,119.43z"/>
	<path d="M138.06,128.41v-10.13h1.02c0.19,0,0.33,0.04,0.4,0.11s0.12,0.2,0.15,0.38l0.12,1.58c0.35-0.71,0.77-1.26,1.29-1.65
		c0.51-0.4,1.11-0.6,1.79-0.6c0.28,0,0.53,0.03,0.76,0.1c0.23,0.06,0.44,0.15,0.63,0.26l-0.23,1.33c-0.05,0.17-0.15,0.25-0.31,0.25
		c-0.09,0-0.24-0.03-0.43-0.09s-0.46-0.1-0.81-0.1c-0.62,0-1.14,0.18-1.55,0.54c-0.42,0.36-0.77,0.88-1.04,1.57v6.45H138.06z"/>
	<path d="M148.5,115.1c0,0.17-0.03,0.33-0.1,0.48c-0.07,0.15-0.16,0.28-0.28,0.4c-0.12,0.12-0.25,0.21-0.41,0.27
		c-0.15,0.07-0.32,0.1-0.49,0.1s-0.33-0.03-0.49-0.1c-0.15-0.07-0.28-0.16-0.4-0.27s-0.21-0.25-0.27-0.4
		c-0.07-0.15-0.1-0.31-0.1-0.48s0.03-0.34,0.1-0.5c0.07-0.16,0.16-0.29,0.27-0.41s0.25-0.21,0.4-0.28c0.15-0.07,0.31-0.1,0.49-0.1
		s0.34,0.03,0.49,0.1c0.15,0.07,0.29,0.16,0.41,0.28c0.12,0.12,0.21,0.25,0.28,0.41C148.46,114.76,148.5,114.93,148.5,115.1z
		 M148.1,118.28v10.13h-1.78v-10.13H148.1z"/>
	<path d="M149.96,118.28h1.46c0.14,0,0.26,0.04,0.35,0.11s0.16,0.16,0.2,0.26l2.57,6.52c0.09,0.24,0.17,0.48,0.22,0.72
		c0.05,0.24,0.1,0.48,0.15,0.71c0.05-0.23,0.11-0.47,0.17-0.71c0.06-0.24,0.14-0.48,0.23-0.72l2.6-6.52c0.04-0.11,0.1-0.2,0.19-0.27
		c0.09-0.07,0.2-0.1,0.33-0.1h1.39l-4.13,10.13h-1.61L149.96,118.28z"/>
	<path d="M168.92,128.41h-0.79c-0.17,0-0.31-0.03-0.42-0.08c-0.11-0.05-0.18-0.17-0.21-0.34l-0.2-0.94
		c-0.27,0.24-0.53,0.46-0.78,0.65c-0.25,0.19-0.52,0.35-0.8,0.48c-0.28,0.13-0.58,0.23-0.9,0.29c-0.32,0.07-0.67,0.1-1.05,0.1
		c-0.39,0-0.76-0.06-1.1-0.17c-0.34-0.11-0.64-0.28-0.9-0.5c-0.25-0.22-0.46-0.5-0.6-0.84c-0.15-0.34-0.23-0.74-0.23-1.2
		c0-0.4,0.11-0.79,0.33-1.16c0.22-0.37,0.57-0.7,1.06-0.99c0.49-0.29,1.13-0.52,1.92-0.71s1.76-0.28,2.91-0.28v-0.79
		c0-0.79-0.17-1.39-0.5-1.8c-0.34-0.41-0.83-0.61-1.5-0.61c-0.43,0-0.8,0.06-1.1,0.17c-0.3,0.11-0.55,0.23-0.77,0.37
		c-0.22,0.14-0.4,0.26-0.56,0.37c-0.16,0.11-0.31,0.17-0.47,0.17c-0.12,0-0.23-0.03-0.31-0.1s-0.16-0.14-0.21-0.23l-0.32-0.57
		c0.56-0.54,1.16-0.94,1.81-1.21c0.65-0.27,1.36-0.4,2.15-0.4c0.57,0,1.07,0.09,1.51,0.28c0.44,0.19,0.81,0.45,1.11,0.78
		c0.3,0.33,0.53,0.74,0.68,1.21c0.15,0.47,0.23,0.99,0.23,1.56V128.41z M164.3,127.32c0.31,0,0.6-0.03,0.86-0.1
		c0.26-0.06,0.51-0.15,0.74-0.27s0.45-0.26,0.66-0.42c0.21-0.17,0.42-0.36,0.62-0.57v-2.09c-0.82,0-1.52,0.05-2.09,0.16
		c-0.57,0.1-1.04,0.24-1.4,0.41c-0.36,0.17-0.62,0.37-0.78,0.59c-0.16,0.23-0.25,0.48-0.25,0.76c0,0.27,0.04,0.5,0.13,0.69
		c0.09,0.19,0.2,0.35,0.35,0.48c0.15,0.12,0.32,0.21,0.52,0.27C163.85,127.29,164.06,127.32,164.3,127.32z"/>
	<path d="M174.69,128.57c-0.8,0-1.41-0.22-1.84-0.67c-0.43-0.45-0.65-1.09-0.65-1.93v-6.2h-1.22c-0.11,0-0.2-0.03-0.27-0.09
		s-0.11-0.16-0.11-0.29v-0.71l1.66-0.21l0.41-3.13c0.01-0.1,0.06-0.18,0.13-0.25c0.07-0.06,0.17-0.09,0.28-0.09h0.9v3.49h2.9v1.29
		h-2.9v6.08c0,0.43,0.1,0.74,0.31,0.95s0.47,0.31,0.8,0.31c0.19,0,0.35-0.03,0.48-0.08s0.25-0.1,0.35-0.17s0.19-0.11,0.25-0.17
		c0.07-0.05,0.13-0.07,0.19-0.07c0.09,0,0.18,0.06,0.25,0.17l0.52,0.85c-0.31,0.29-0.68,0.51-1.11,0.67
		C175.59,128.49,175.15,128.57,174.69,128.57z"/>
	<path d="M181.46,115.1c0,0.17-0.04,0.33-0.1,0.48c-0.07,0.15-0.16,0.28-0.28,0.4s-0.25,0.21-0.4,0.27c-0.15,0.07-0.32,0.1-0.49,0.1
		s-0.33-0.03-0.48-0.1c-0.15-0.07-0.28-0.16-0.4-0.27s-0.21-0.25-0.27-0.4c-0.07-0.15-0.1-0.31-0.1-0.48s0.03-0.34,0.1-0.5
		c0.07-0.16,0.16-0.29,0.27-0.41s0.25-0.21,0.4-0.28c0.15-0.07,0.31-0.1,0.48-0.1s0.34,0.03,0.49,0.1c0.15,0.07,0.29,0.16,0.4,0.28
		s0.21,0.25,0.28,0.41C181.42,114.76,181.46,114.93,181.46,115.1z M181.06,118.28v10.13h-1.78v-10.13H181.06z"/>
	<path d="M182.92,118.28h1.46c0.14,0,0.26,0.04,0.35,0.11c0.09,0.07,0.16,0.16,0.2,0.26l2.57,6.52c0.09,0.24,0.17,0.48,0.22,0.72
		c0.05,0.24,0.1,0.48,0.15,0.71c0.05-0.23,0.11-0.47,0.17-0.71c0.06-0.24,0.14-0.48,0.23-0.72l2.6-6.52c0.04-0.11,0.1-0.2,0.2-0.27
		c0.09-0.07,0.2-0.1,0.33-0.1h1.39l-4.13,10.13h-1.61L182.92,118.28z"/>
	<path d="M198.19,118.12c0.61,0,1.17,0.1,1.68,0.31c0.51,0.2,0.96,0.5,1.33,0.88c0.37,0.38,0.66,0.86,0.88,1.42
		c0.21,0.56,0.31,1.21,0.31,1.93c0,0.28-0.03,0.47-0.09,0.56c-0.06,0.09-0.17,0.14-0.34,0.14h-6.74c0.01,0.64,0.1,1.2,0.26,1.67
		c0.16,0.47,0.38,0.87,0.66,1.19c0.28,0.32,0.61,0.55,1,0.71c0.39,0.16,0.82,0.24,1.3,0.24c0.45,0,0.83-0.05,1.16-0.16
		c0.32-0.1,0.6-0.21,0.83-0.33c0.23-0.12,0.43-0.23,0.58-0.33c0.16-0.1,0.29-0.16,0.4-0.16c0.15,0,0.26,0.06,0.34,0.17l0.5,0.65
		c-0.22,0.27-0.48,0.5-0.79,0.69c-0.31,0.2-0.64,0.36-0.99,0.48c-0.35,0.13-0.71,0.22-1.08,0.29c-0.37,0.06-0.74,0.1-1.11,0.1
		c-0.7,0-1.35-0.12-1.94-0.35c-0.59-0.24-1.1-0.58-1.53-1.04c-0.43-0.46-0.77-1.02-1.01-1.7c-0.24-0.67-0.36-1.45-0.36-2.32
		c0-0.71,0.11-1.37,0.33-1.98c0.22-0.61,0.53-1.15,0.94-1.6c0.41-0.45,0.9-0.8,1.49-1.06C196.79,118.25,197.45,118.12,198.19,118.12
		z M198.23,119.43c-0.86,0-1.54,0.25-2.03,0.75c-0.49,0.5-0.8,1.19-0.92,2.06h5.51c0-0.41-0.06-0.79-0.17-1.14
		c-0.11-0.34-0.28-0.64-0.5-0.89c-0.22-0.25-0.49-0.44-0.81-0.58C199,119.5,198.63,119.43,198.23,119.43z"/>
</g>
<g>
	<path d="M317.1,99.41h-1.94V85.08h1.94V99.41z"/>
	<path d="M320.66,99.41V89.28h1.06c0.25,0,0.41,0.12,0.48,0.37l0.14,1.1c0.44-0.49,0.93-0.88,1.47-1.18
		c0.54-0.3,1.17-0.45,1.88-0.45c0.55,0,1.04,0.09,1.46,0.27c0.42,0.18,0.78,0.44,1.06,0.78c0.28,0.34,0.5,0.74,0.64,1.21
		c0.15,0.47,0.22,1,0.22,1.57v6.45h-1.78v-6.45c0-0.77-0.17-1.36-0.53-1.78c-0.35-0.42-0.88-0.64-1.6-0.64
		c-0.53,0-1.02,0.13-1.48,0.38c-0.46,0.25-0.88,0.6-1.26,1.03v7.46H320.66z"/>
	<path d="M334.85,99.57c-0.8,0-1.42-0.22-1.84-0.67c-0.43-0.45-0.65-1.09-0.65-1.93v-6.2h-1.22c-0.11,0-0.2-0.03-0.27-0.09
		s-0.11-0.16-0.11-0.29v-0.71l1.66-0.21l0.41-3.13c0.01-0.1,0.06-0.18,0.13-0.25c0.07-0.06,0.17-0.09,0.28-0.09h0.9v3.49h2.9v1.29
		h-2.9v6.08c0,0.43,0.1,0.74,0.31,0.95c0.21,0.21,0.47,0.31,0.8,0.31c0.19,0,0.35-0.03,0.49-0.08s0.25-0.1,0.36-0.17
		c0.1-0.06,0.18-0.11,0.25-0.17c0.07-0.05,0.13-0.07,0.18-0.07c0.09,0,0.18,0.06,0.25,0.17l0.52,0.85
		c-0.31,0.29-0.68,0.51-1.11,0.67S335.31,99.57,334.85,99.57z"/>
	<path d="M343.25,89.12c0.61,0,1.17,0.1,1.68,0.31c0.51,0.2,0.96,0.5,1.33,0.88c0.37,0.38,0.67,0.86,0.88,1.42
		c0.21,0.56,0.32,1.21,0.32,1.93c0,0.28-0.03,0.47-0.09,0.56c-0.06,0.09-0.17,0.14-0.34,0.14h-6.74c0.01,0.64,0.1,1.2,0.26,1.67
		c0.16,0.47,0.38,0.87,0.66,1.19c0.28,0.32,0.61,0.55,1,0.71c0.39,0.16,0.82,0.24,1.3,0.24c0.45,0,0.83-0.05,1.16-0.16
		c0.32-0.1,0.6-0.21,0.83-0.33s0.43-0.23,0.58-0.33c0.16-0.1,0.29-0.16,0.41-0.16c0.15,0,0.26,0.06,0.34,0.17l0.5,0.65
		c-0.22,0.27-0.48,0.5-0.79,0.69c-0.31,0.2-0.63,0.36-0.99,0.48c-0.35,0.13-0.71,0.22-1.08,0.29c-0.37,0.06-0.74,0.1-1.11,0.1
		c-0.7,0-1.34-0.12-1.93-0.35c-0.59-0.24-1.1-0.58-1.53-1.04c-0.43-0.46-0.76-1.02-1-1.7c-0.24-0.67-0.36-1.45-0.36-2.32
		c0-0.71,0.11-1.37,0.32-1.98s0.53-1.15,0.94-1.6c0.41-0.45,0.9-0.8,1.49-1.06C341.85,89.25,342.51,89.12,343.25,89.12z
		 M343.29,90.43c-0.86,0-1.54,0.25-2.03,0.75s-0.8,1.19-0.92,2.06h5.51c0-0.41-0.06-0.79-0.17-1.14c-0.11-0.34-0.28-0.64-0.5-0.89
		c-0.22-0.25-0.49-0.44-0.8-0.58S343.69,90.43,343.29,90.43z"/>
	<path d="M353.13,89.11c0.44,0,0.85,0.05,1.24,0.15c0.38,0.1,0.73,0.24,1.04,0.42h2.75v0.66c0,0.22-0.14,0.36-0.42,0.42l-1.15,0.16
		c0.23,0.43,0.34,0.92,0.34,1.45c0,0.49-0.09,0.94-0.29,1.35c-0.19,0.4-0.45,0.75-0.79,1.03c-0.34,0.29-0.74,0.51-1.2,0.66
		c-0.46,0.15-0.97,0.23-1.53,0.23c-0.47,0-0.92-0.06-1.34-0.17c-0.21,0.14-0.38,0.29-0.49,0.44c-0.11,0.16-0.17,0.31-0.17,0.47
		c0,0.25,0.1,0.44,0.29,0.56s0.45,0.22,0.77,0.27c0.32,0.06,0.68,0.08,1.09,0.08c0.41,0,0.82,0,1.25,0c0.42,0,0.84,0.04,1.25,0.11
		c0.41,0.07,0.77,0.2,1.09,0.36c0.32,0.17,0.58,0.4,0.77,0.7s0.29,0.68,0.29,1.15c0,0.44-0.11,0.86-0.33,1.28s-0.53,0.78-0.93,1.1
		c-0.41,0.32-0.9,0.58-1.49,0.77s-1.25,0.29-1.99,0.29c-0.74,0-1.39-0.07-1.94-0.22s-1.02-0.34-1.39-0.59
		c-0.37-0.25-0.64-0.53-0.82-0.86c-0.18-0.32-0.28-0.66-0.28-1.02c0-0.5,0.16-0.93,0.47-1.28c0.32-0.35,0.75-0.63,1.31-0.84
		c-0.29-0.13-0.52-0.31-0.69-0.53c-0.17-0.22-0.25-0.52-0.25-0.89c0-0.15,0.03-0.3,0.08-0.45c0.05-0.16,0.13-0.31,0.25-0.46
		s0.25-0.3,0.41-0.44s0.35-0.26,0.56-0.37c-0.5-0.28-0.89-0.65-1.17-1.12s-0.42-1-0.42-1.62c0-0.49,0.09-0.94,0.29-1.34
		c0.19-0.4,0.46-0.75,0.79-1.03c0.34-0.28,0.75-0.5,1.21-0.65S352.57,89.11,353.13,89.11z M356.29,99.93c0-0.26-0.07-0.47-0.21-0.62
		c-0.14-0.16-0.33-0.28-0.57-0.36s-0.52-0.15-0.83-0.19c-0.31-0.04-0.64-0.06-0.99-0.06s-0.7,0-1.06,0s-0.7-0.04-1.03-0.13
		c-0.38,0.18-0.69,0.4-0.92,0.66s-0.35,0.57-0.35,0.93c0,0.23,0.06,0.44,0.17,0.64c0.12,0.2,0.29,0.37,0.54,0.51
		c0.24,0.14,0.54,0.26,0.9,0.34s0.79,0.13,1.29,0.13c0.48,0,0.91-0.04,1.29-0.13s0.7-0.21,0.96-0.38c0.26-0.16,0.46-0.36,0.61-0.58
		C356.22,100.45,356.29,100.2,356.29,99.93z M353.13,94.46c0.36,0,0.68-0.05,0.96-0.15s0.51-0.24,0.7-0.42
		c0.19-0.18,0.33-0.4,0.42-0.65c0.09-0.25,0.14-0.52,0.14-0.83c0-0.62-0.19-1.11-0.57-1.48c-0.38-0.37-0.92-0.55-1.64-0.55
		c-0.71,0-1.26,0.18-1.63,0.55c-0.38,0.37-0.57,0.86-0.57,1.48c0,0.3,0.05,0.58,0.15,0.83s0.24,0.46,0.42,0.65s0.42,0.32,0.69,0.42
		S352.77,94.46,353.13,94.46z"/>
	<path d="M359.94,99.41V89.28h1.02c0.19,0,0.33,0.04,0.4,0.11s0.12,0.2,0.15,0.38l0.12,1.58c0.35-0.71,0.77-1.26,1.29-1.65
		c0.51-0.4,1.11-0.6,1.79-0.6c0.28,0,0.53,0.03,0.76,0.1s0.44,0.15,0.63,0.26l-0.23,1.33c-0.05,0.17-0.15,0.25-0.31,0.25
		c-0.09,0-0.24-0.03-0.43-0.09s-0.46-0.1-0.81-0.1c-0.62,0-1.14,0.18-1.55,0.54c-0.42,0.36-0.76,0.88-1.04,1.57v6.45H359.94z"/>
	<path d="M375.06,99.41h-0.79c-0.17,0-0.31-0.03-0.42-0.08c-0.11-0.05-0.18-0.17-0.21-0.34l-0.2-0.94
		c-0.27,0.24-0.53,0.46-0.78,0.65c-0.25,0.19-0.52,0.35-0.8,0.48c-0.28,0.13-0.58,0.23-0.89,0.29c-0.32,0.07-0.67,0.1-1.06,0.1
		c-0.39,0-0.76-0.06-1.1-0.17c-0.34-0.11-0.64-0.28-0.9-0.5c-0.25-0.22-0.45-0.5-0.6-0.84c-0.15-0.34-0.22-0.74-0.22-1.2
		c0-0.4,0.11-0.79,0.33-1.16c0.22-0.37,0.58-0.7,1.07-0.99s1.13-0.52,1.92-0.71c0.79-0.18,1.76-0.28,2.91-0.28v-0.79
		c0-0.79-0.17-1.39-0.5-1.8c-0.34-0.41-0.83-0.61-1.5-0.61c-0.43,0-0.8,0.06-1.09,0.17c-0.3,0.11-0.55,0.23-0.77,0.37
		s-0.4,0.26-0.56,0.37c-0.16,0.11-0.31,0.17-0.46,0.17c-0.12,0-0.23-0.03-0.32-0.1s-0.16-0.14-0.21-0.23l-0.32-0.57
		c0.56-0.54,1.16-0.94,1.81-1.21c0.65-0.27,1.36-0.4,2.15-0.4c0.57,0,1.07,0.09,1.51,0.28c0.44,0.19,0.81,0.45,1.11,0.78
		s0.53,0.74,0.68,1.21c0.15,0.47,0.23,0.99,0.23,1.56V99.41z M370.44,98.32c0.31,0,0.6-0.03,0.86-0.1c0.26-0.06,0.5-0.15,0.73-0.27
		c0.23-0.12,0.45-0.26,0.66-0.42s0.42-0.36,0.62-0.57v-2.09c-0.82,0-1.52,0.05-2.09,0.16c-0.57,0.1-1.04,0.24-1.4,0.41
		c-0.36,0.17-0.62,0.37-0.79,0.59c-0.16,0.23-0.24,0.48-0.24,0.76c0,0.27,0.04,0.5,0.13,0.69c0.09,0.19,0.2,0.35,0.35,0.48
		c0.15,0.12,0.32,0.21,0.52,0.27C369.99,98.29,370.2,98.32,370.44,98.32z"/>
	<path d="M379.74,84.68v14.73h-1.78V84.68H379.74z"/>
</g>
<polyline class="st3" points="63.06,206.41 117.06,206.41 117.06,334.41 "/>
<path class="st4" d="M121.96,206.41c0,2.71-2.19,4.9-4.9,4.9c-2.71,0-4.9-2.19-4.9-4.9c0-2.71,2.19-4.9,4.9-4.9
	C119.76,201.51,121.96,203.71,121.96,206.41z"/>
<g>
	<path d="M117.96,357.91h-0.79c-0.17,0-0.31-0.03-0.42-0.08c-0.11-0.05-0.18-0.17-0.21-0.34l-0.2-0.94
		c-0.27,0.24-0.53,0.46-0.78,0.65c-0.25,0.19-0.52,0.35-0.8,0.48c-0.28,0.13-0.58,0.23-0.9,0.29c-0.32,0.07-0.67,0.1-1.06,0.1
		c-0.39,0-0.76-0.06-1.1-0.17s-0.64-0.28-0.9-0.5s-0.46-0.5-0.6-0.84s-0.23-0.74-0.23-1.2c0-0.4,0.11-0.79,0.33-1.16
		s0.58-0.7,1.06-0.99c0.49-0.29,1.13-0.52,1.93-0.71c0.79-0.18,1.76-0.28,2.91-0.28v-0.79c0-0.79-0.17-1.39-0.5-1.8
		c-0.34-0.41-0.83-0.61-1.5-0.61c-0.43,0-0.8,0.05-1.09,0.17c-0.3,0.11-0.55,0.23-0.77,0.37c-0.22,0.14-0.4,0.26-0.56,0.37
		c-0.16,0.11-0.31,0.17-0.47,0.17c-0.12,0-0.22-0.03-0.31-0.09c-0.09-0.06-0.16-0.14-0.21-0.24l-0.32-0.57
		c0.56-0.54,1.16-0.94,1.81-1.21c0.65-0.27,1.36-0.4,2.15-0.4c0.57,0,1.07,0.09,1.51,0.28s0.81,0.45,1.11,0.78
		c0.3,0.33,0.53,0.74,0.68,1.21s0.23,0.99,0.23,1.56V357.91z M113.34,356.82c0.31,0,0.6-0.03,0.86-0.09
		c0.26-0.06,0.5-0.15,0.73-0.27c0.23-0.12,0.45-0.26,0.66-0.42s0.42-0.36,0.61-0.57v-2.09c-0.82,0-1.52,0.05-2.09,0.16
		c-0.57,0.1-1.04,0.24-1.4,0.41c-0.36,0.17-0.62,0.37-0.79,0.59c-0.16,0.23-0.25,0.48-0.25,0.76c0,0.27,0.04,0.5,0.13,0.69
		c0.09,0.19,0.2,0.35,0.35,0.48s0.32,0.21,0.52,0.27C112.89,356.79,113.1,356.82,113.34,356.82z"/>
</g>
<line class="st5" x1="158.81" y1="259.23" x2="236.06" y2="181.41"/>
<g>
	<g>
		<line class="st0" x1="124.06" y1="138.41" x2="173.78" y2="211.9"/>
		<path d="M176.82,213.84c-0.72-2.31-1.03-3.92-1.45-5.87l-5.85,3.96c0.63,0.37,3.03,2.01,4.91,3.53c2.01,1.63,3.69,3.21,4.66,4.31
			C178.42,218.46,177.59,216.31,176.82,213.84z"/>
	</g>
</g>
<g>
	<path d="M187.58,357.91v-14.73h1.79v6.06c0.42-0.49,0.9-0.88,1.44-1.17s1.17-0.45,1.87-0.45c0.59,0,1.12,0.11,1.59,0.33
		c0.47,0.22,0.88,0.55,1.21,0.99s0.59,0.98,0.77,1.62c0.18,0.64,0.27,1.39,0.27,2.23c0,0.75-0.1,1.44-0.3,2.08
		c-0.2,0.64-0.49,1.2-0.87,1.67s-0.84,0.84-1.38,1.11c-0.54,0.27-1.16,0.4-1.83,0.4c-0.65,0-1.21-0.13-1.67-0.38
		c-0.46-0.25-0.85-0.61-1.19-1.06l-0.09,0.92c-0.05,0.25-0.21,0.38-0.46,0.38H187.58z M192.1,349.04c-0.58,0-1.09,0.13-1.52,0.4
		c-0.44,0.27-0.84,0.64-1.21,1.13v4.9c0.32,0.44,0.67,0.75,1.06,0.93c0.39,0.18,0.83,0.27,1.31,0.27c0.95,0,1.67-0.34,2.18-1.01
		c0.51-0.67,0.76-1.63,0.76-2.88c0-0.66-0.06-1.23-0.18-1.7s-0.28-0.86-0.5-1.17c-0.22-0.3-0.49-0.52-0.81-0.67
		C192.87,349.11,192.51,349.04,192.1,349.04z"/>
</g>
<g>
	<path d="M261.68,349.58c-0.05,0.07-0.11,0.13-0.16,0.17s-0.13,0.06-0.23,0.06c-0.1,0-0.21-0.04-0.33-0.12
		c-0.12-0.08-0.27-0.18-0.45-0.28s-0.4-0.19-0.66-0.28c-0.26-0.08-0.57-0.12-0.94-0.12c-0.49,0-0.93,0.09-1.31,0.27
		s-0.7,0.43-0.96,0.76c-0.26,0.33-0.45,0.74-0.58,1.21c-0.13,0.47-0.19,1-0.19,1.59c0,0.61,0.07,1.16,0.21,1.64
		c0.14,0.48,0.34,0.88,0.59,1.2c0.25,0.32,0.56,0.57,0.92,0.74s0.77,0.25,1.22,0.25c0.43,0,0.79-0.05,1.07-0.15
		c0.28-0.1,0.51-0.22,0.7-0.35c0.19-0.13,0.34-0.24,0.46-0.34s0.24-0.16,0.36-0.16c0.15,0,0.27,0.06,0.34,0.17l0.5,0.65
		c-0.44,0.54-0.99,0.93-1.65,1.18s-1.36,0.38-2.09,0.38c-0.63,0-1.22-0.12-1.76-0.35c-0.54-0.23-1.02-0.57-1.42-1.01
		c-0.4-0.44-0.71-0.99-0.95-1.64c-0.23-0.65-0.34-1.38-0.34-2.21c0-0.75,0.1-1.45,0.31-2.09c0.21-0.64,0.52-1.19,0.92-1.66
		c0.4-0.46,0.9-0.82,1.5-1.08c0.59-0.26,1.27-0.39,2.04-0.39c0.71,0,1.33,0.12,1.88,0.34c0.55,0.23,1.03,0.56,1.45,0.98
		L261.68,349.58z"/>
</g>
<g>
	<path d="M330.15,357.91c-0.25,0-0.41-0.12-0.48-0.37l-0.16-1.23c-0.43,0.53-0.93,0.95-1.49,1.26s-1.2,0.47-1.92,0.47
		c-0.58,0-1.11-0.11-1.58-0.33c-0.47-0.22-0.88-0.55-1.21-0.98c-0.33-0.43-0.59-0.97-0.77-1.62c-0.18-0.65-0.27-1.39-0.27-2.23
		c0-0.75,0.1-1.44,0.3-2.08c0.2-0.64,0.49-1.2,0.87-1.67s0.83-0.84,1.38-1.12c0.54-0.27,1.15-0.4,1.84-0.4
		c0.62,0,1.15,0.1,1.59,0.31c0.44,0.21,0.83,0.5,1.18,0.88v-5.62h1.78v14.73H330.15z M326.7,356.61c0.58,0,1.09-0.13,1.53-0.4
		s0.84-0.64,1.21-1.13v-4.9c-0.33-0.44-0.69-0.75-1.08-0.92s-0.82-0.26-1.29-0.26c-0.95,0-1.67,0.34-2.18,1.01
		c-0.51,0.67-0.76,1.63-0.76,2.88c0,0.66,0.06,1.23,0.17,1.7c0.11,0.47,0.28,0.86,0.5,1.16c0.22,0.3,0.49,0.52,0.81,0.67
		C325.92,356.54,326.29,356.61,326.7,356.61z"/>
</g>
<line class="st6" x1="187.68" y1="335.41" x2="187.68" y2="231.41"/>
<g>
	<g>
		<line class="st0" x1="340.06" y1="109.41" x2="301.06" y2="141.41"/>
		<path d="M299.41,144.62c2.23-0.93,3.8-1.38,5.71-1.99l-4.48-5.46c-0.31,0.67-1.72,3.21-3.06,5.21c-1.44,2.15-2.85,3.97-3.86,5.04
			C294.96,146.64,297.02,145.61,299.41,144.62z"/>
	</g>
</g>
<path class="st7" d="M191.96,229.41c0,2.71-2.19,4.9-4.9,4.9c-2.71,0-4.9-2.19-4.9-4.9c0-2.71,2.19-4.9,4.9-4.9
	C189.76,224.51,191.96,226.71,191.96,229.41z"/>
<rect class="st8" width="422.35" height="374.12"/>
</svg>
