<?xml version="1.0" encoding="utf-8"?>
<!-- Generator: Adobe Illustrator 19.1.0, SVG Export Plug-In . SVG Version: 6.00 Build 0)  -->
<svg version="1.1" id="Layer_1" xmlns="http://www.w3.org/2000/svg" xmlns:xlink="http://www.w3.org/1999/xlink" x="0px" y="0px"
	 viewBox="0 0 469.25 154.23" style="enable-background:new 0 0 469.25 154.23;" xml:space="preserve">
<style type="text/css">
	.st0{fill:none;stroke:#131312;stroke-width:0.25;stroke-dasharray:5,3;}
	.st1{fill:#131312;}
	.st2{fill:none;stroke:#131312;stroke-width:0.25;}
	.st3{fill:none;stroke:#006699;stroke-width:2;stroke-linecap:round;}
	.st4{fill:#006699;}
	.st5{fill:none;stroke:#000000;stroke-width:0.25;}
	.st6{opacity:0.17;fill:#009999;stroke:#000000;stroke-width:0.25;stroke-dasharray:6,4;}
	.st7{fill:none;stroke:#000000;stroke-width:0.25;stroke-dasharray:6,4;}
	.st8{fill:none;stroke:#F97C00;stroke-width:2;}
	.st9{fill:none;stroke:#000000;stroke-width:0.5;}
	.st10{fill:none;stroke:#131312;stroke-width:0.25;stroke-dasharray:6,4;}
	.st11{fill:#006699;stroke:#006699;stroke-width:0.75;}
	.st12{fill:#231F20;}
</style>
<g>
	<path d="M315.14,119.41l1.83-2.14l-1.05-2.07h0.79l0.36,0.75c0.13,0.28,0.25,0.55,0.36,0.81l1.21-1.55h0.88l-1.77,2.13l1.06,2.08
		h-0.79l-0.42-0.86c-0.09-0.18-0.19-0.41-0.31-0.68l-1.25,1.53H315.14z"/>
</g>
<g>
	<path d="M304.46,45.5v0.48h-2.69c0-0.12,0.02-0.24,0.06-0.35c0.07-0.18,0.18-0.36,0.33-0.54c0.15-0.18,0.37-0.38,0.65-0.62
		c0.44-0.36,0.74-0.65,0.9-0.86c0.16-0.21,0.23-0.41,0.23-0.6c0-0.2-0.07-0.36-0.21-0.5c-0.14-0.14-0.33-0.2-0.55-0.2
		c-0.24,0-0.43,0.07-0.58,0.22c-0.14,0.14-0.22,0.34-0.22,0.6l-0.51-0.05c0.04-0.38,0.17-0.67,0.4-0.88s0.54-0.3,0.92-0.3
		c0.39,0,0.7,0.11,0.93,0.32c0.23,0.22,0.34,0.48,0.34,0.8c0,0.16-0.03,0.32-0.1,0.48c-0.07,0.16-0.18,0.32-0.33,0.5
		s-0.41,0.41-0.77,0.72c-0.3,0.25-0.49,0.42-0.58,0.51c-0.09,0.09-0.16,0.18-0.21,0.27H304.46z"/>
</g>
<line class="st0" x1="239.4" y1="68.86" x2="273.33" y2="68.86"/>
<line class="st0" x1="239.5" y1="83.37" x2="273.43" y2="83.37"/>
<path class="st1" d="M239.18,83.32"/>
<g>
	<g>
		<line class="st2" x1="194.87" y1="112.41" x2="313.57" y2="112.41"/>
		<g>
			<path class="st1" d="M312.23,112.41l-1.64-2.7l0.09-0.06l4.41,1.75c1.54,0.34,3.07,0.68,4.61,1.01
				c-1.54,0.34-3.07,0.68-4.61,1.01l-4.41,1.75l-0.09-0.05L312.23,112.41z"/>
		</g>
	</g>
</g>
<g>
	<path d="M233.9,117.46c0-0.69,0.07-1.24,0.21-1.66c0.14-0.42,0.35-0.74,0.63-0.97c0.28-0.23,0.63-0.34,1.05-0.34
		c0.31,0,0.59,0.06,0.82,0.19c0.24,0.13,0.43,0.31,0.58,0.54c0.15,0.24,0.27,0.52,0.36,0.86c0.09,0.34,0.13,0.8,0.13,1.37
		c0,0.68-0.07,1.23-0.21,1.65s-0.35,0.74-0.63,0.97s-0.63,0.34-1.06,0.34c-0.56,0-1-0.2-1.32-0.6
		C234.09,119.34,233.9,118.55,233.9,117.46z M234.63,117.46c0,0.95,0.11,1.59,0.33,1.9c0.22,0.32,0.5,0.47,0.83,0.47
		s0.6-0.16,0.83-0.48c0.22-0.32,0.34-0.95,0.34-1.9c0-0.96-0.11-1.59-0.34-1.91c-0.22-0.31-0.5-0.47-0.83-0.47
		c-0.33,0-0.59,0.14-0.79,0.42C234.76,115.85,234.63,116.5,234.63,117.46z"/>
</g>
<g>
	<g>
		<line class="st2" x1="239.38" y1="130.82" x2="239.38" y2="26.92"/>
		<g>
			<path class="st1" d="M239.38,28.27l-2.7,1.64l-0.06-0.09l1.75-4.41c0.34-1.54,0.68-3.07,1.01-4.61c0.34,1.54,0.68,3.07,1.01,4.61
				l1.75,4.41l-0.05,0.09L239.38,28.27z"/>
		</g>
	</g>
</g>
<g>
	<path d="M283.49,49.98l0.04-0.67c0.15,0.04,0.29,0.06,0.43,0.06c0.15,0,0.26-0.03,0.35-0.1c0.12-0.09,0.24-0.25,0.38-0.49
		l0.23-0.41l-0.7-4.22h0.71l0.32,2.13c0.06,0.42,0.12,0.84,0.16,1.26l1.88-3.39h0.75l-2.68,4.77c-0.26,0.46-0.49,0.77-0.69,0.92
		c-0.2,0.15-0.43,0.23-0.69,0.23C283.81,50.06,283.65,50.03,283.49,49.98z"/>
	<path d="M294.37,44.94h-3.84v-0.67h3.84V44.94z M294.37,46.7h-3.84v-0.67h3.84V46.7z"/>
	<path d="M296.79,48.35l1.83-2.14l-1.05-2.07h0.79l0.36,0.75c0.13,0.28,0.25,0.55,0.36,0.81l1.21-1.55h0.88l-1.77,2.13l1.06,2.08
		h-0.79l-0.42-0.86c-0.09-0.18-0.19-0.41-0.31-0.68l-1.25,1.53H296.79z"/>
</g>
<g>
	<path d="M232.14,26.91l0.04-0.67c0.15,0.04,0.29,0.06,0.43,0.06c0.15,0,0.26-0.03,0.35-0.1c0.12-0.09,0.24-0.25,0.38-0.49
		l0.23-0.41l-0.7-4.22h0.71l0.32,2.13c0.06,0.42,0.12,0.84,0.16,1.26l1.88-3.39h0.75l-2.68,4.77c-0.26,0.46-0.49,0.77-0.69,0.92
		c-0.2,0.15-0.43,0.23-0.69,0.23C232.46,26.99,232.3,26.96,232.14,26.91z"/>
</g>
<line class="st0" x1="267.53" y1="112.45" x2="267.53" y2="84.41"/>
<path class="st3" d="M197.1,39.08c6.49,37.69,25.57,73.27,42.22,73.27"/>
<path class="st3" d="M281.33,39.05c-6.49,37.69-25.57,73.27-42.22,73.27"/>
<circle class="st4" cx="273.51" cy="68.81" r="1.14"/>
<circle class="st4" cx="267.42" cy="83.32" r="1.14"/>
<line class="st0" x1="273.51" y1="112.45" x2="273.51" y2="69.76"/>
<g>
	<path d="M265.84,118.49c-0.25,0.21-0.49,0.37-0.72,0.47c-0.23,0.1-0.48,0.15-0.74,0.15c-0.39,0-0.7-0.11-0.94-0.34
		c-0.24-0.23-0.36-0.52-0.36-0.88c0-0.23,0.05-0.44,0.16-0.62c0.11-0.18,0.25-0.33,0.43-0.44c0.18-0.11,0.39-0.19,0.65-0.24
		c0.16-0.03,0.47-0.06,0.92-0.08c0.45-0.02,0.77-0.07,0.97-0.14c0.06-0.2,0.08-0.36,0.08-0.49c0-0.17-0.06-0.3-0.18-0.39
		c-0.17-0.13-0.41-0.2-0.73-0.2c-0.3,0-0.55,0.07-0.74,0.2c-0.19,0.13-0.33,0.32-0.42,0.57L263.5,116c0.15-0.42,0.38-0.74,0.7-0.96
		c0.32-0.22,0.73-0.33,1.21-0.33c0.52,0,0.93,0.12,1.24,0.37c0.23,0.19,0.35,0.43,0.35,0.72c0,0.22-0.03,0.48-0.1,0.78l-0.23,1.05
		c-0.07,0.33-0.11,0.6-0.11,0.81c0,0.13,0.03,0.32,0.09,0.57h-0.73C265.88,118.88,265.86,118.71,265.84,118.49z M266.1,116.88
		c-0.1,0.04-0.21,0.07-0.32,0.09c-0.12,0.02-0.31,0.04-0.58,0.07c-0.42,0.04-0.71,0.08-0.88,0.14c-0.17,0.06-0.3,0.15-0.39,0.27
		c-0.09,0.12-0.13,0.26-0.13,0.41c0,0.2,0.07,0.37,0.21,0.5c0.14,0.13,0.34,0.19,0.59,0.19c0.24,0,0.47-0.06,0.69-0.19
		c0.22-0.13,0.39-0.3,0.52-0.53S266.03,117.3,266.1,116.88z"/>
</g>
<g>
	<path d="M275.89,118.49c-0.25,0.21-0.49,0.37-0.72,0.47c-0.23,0.1-0.48,0.15-0.74,0.15c-0.39,0-0.7-0.11-0.94-0.34
		c-0.24-0.23-0.36-0.52-0.36-0.88c0-0.23,0.05-0.44,0.16-0.62c0.11-0.18,0.25-0.33,0.43-0.44c0.18-0.11,0.39-0.19,0.65-0.24
		c0.16-0.03,0.47-0.06,0.92-0.08c0.45-0.02,0.77-0.07,0.97-0.14c0.06-0.2,0.08-0.36,0.08-0.49c0-0.17-0.06-0.3-0.18-0.39
		c-0.17-0.13-0.41-0.2-0.73-0.2c-0.3,0-0.55,0.07-0.74,0.2c-0.19,0.13-0.33,0.32-0.42,0.57l-0.72-0.06c0.15-0.42,0.38-0.74,0.7-0.96
		c0.32-0.22,0.73-0.33,1.21-0.33c0.52,0,0.93,0.12,1.24,0.37c0.23,0.19,0.35,0.43,0.35,0.72c0,0.22-0.03,0.48-0.1,0.78l-0.23,1.05
		c-0.07,0.33-0.11,0.6-0.11,0.81c0,0.13,0.03,0.32,0.09,0.57h-0.73C275.93,118.88,275.9,118.71,275.89,118.49z M276.15,116.88
		c-0.1,0.04-0.21,0.07-0.32,0.09c-0.12,0.02-0.31,0.04-0.58,0.07c-0.42,0.04-0.71,0.08-0.88,0.14c-0.17,0.06-0.3,0.15-0.39,0.27
		c-0.09,0.12-0.13,0.26-0.13,0.41c0,0.2,0.07,0.37,0.21,0.5c0.14,0.13,0.34,0.19,0.59,0.19c0.24,0,0.47-0.06,0.69-0.19
		c0.22-0.13,0.39-0.3,0.52-0.53S276.08,117.3,276.15,116.88z"/>
	<path d="M279.61,118.08v-1.59h-1.58v-0.67h1.58v-1.58h0.67v1.58h1.58v0.67h-1.58v1.59H279.61z"/>
	<path d="M286.87,119.02h-4.66l2.24-5.45h0.18L286.87,119.02z M282.78,118.65h3.03l-1.51-3.73L282.78,118.65z"/>
	<path d="M286.99,119.02l1.83-2.14l-1.05-2.07h0.79l0.36,0.75c0.13,0.28,0.25,0.55,0.36,0.81l1.21-1.55h0.88l-1.77,2.13l1.06,2.08
		h-0.79l-0.42-0.86c-0.09-0.18-0.19-0.41-0.31-0.68l-1.25,1.53H286.99z"/>
</g>
<g>
	<path d="M226.26,85.51l0.77-3.65h-0.64l0.11-0.56h0.64l0.12-0.6c0.06-0.3,0.13-0.51,0.2-0.65s0.18-0.24,0.33-0.33
		c0.15-0.09,0.36-0.13,0.62-0.13c0.18,0,0.45,0.04,0.79,0.12l-0.13,0.63c-0.24-0.06-0.45-0.09-0.61-0.09c-0.14,0-0.25,0.03-0.32,0.1
		c-0.07,0.07-0.14,0.24-0.19,0.5l-0.1,0.45h0.8l-0.12,0.56h-0.8l-0.77,3.65H226.26z"/>
	<path d="M229.46,87.21c-0.42-0.91-0.62-1.84-0.62-2.8c0-0.64,0.08-1.23,0.25-1.79c0.17-0.55,0.42-1.1,0.77-1.64
		c0.23-0.36,0.59-0.82,1.09-1.4h0.56c-0.31,0.33-0.64,0.8-0.98,1.4s-0.6,1.19-0.75,1.77c-0.16,0.58-0.23,1.16-0.23,1.74
		c0,0.87,0.15,1.78,0.46,2.71H229.46z"/>
	<path d="M233.96,84.98c-0.25,0.21-0.49,0.37-0.72,0.47c-0.23,0.1-0.48,0.15-0.74,0.15c-0.39,0-0.7-0.11-0.94-0.34
		s-0.36-0.52-0.36-0.88c0-0.23,0.05-0.44,0.16-0.62c0.11-0.18,0.25-0.33,0.43-0.44c0.18-0.11,0.39-0.19,0.65-0.24
		c0.16-0.03,0.47-0.06,0.92-0.08s0.77-0.07,0.97-0.14c0.06-0.2,0.08-0.36,0.08-0.49c0-0.17-0.06-0.3-0.18-0.39
		c-0.17-0.13-0.41-0.2-0.73-0.2c-0.3,0-0.55,0.07-0.74,0.2c-0.19,0.13-0.33,0.32-0.42,0.57l-0.73-0.06c0.15-0.42,0.38-0.74,0.7-0.96
		c0.32-0.22,0.73-0.33,1.21-0.33c0.52,0,0.93,0.12,1.24,0.37c0.23,0.19,0.35,0.43,0.35,0.72c0,0.22-0.03,0.48-0.1,0.78l-0.23,1.05
		c-0.07,0.33-0.11,0.6-0.11,0.81c0,0.13,0.03,0.32,0.09,0.57h-0.73C234,85.37,233.98,85.19,233.96,84.98z M234.23,83.37
		c-0.1,0.04-0.21,0.07-0.32,0.09c-0.11,0.02-0.31,0.04-0.58,0.07c-0.42,0.04-0.71,0.08-0.88,0.14c-0.17,0.06-0.3,0.15-0.39,0.27
		c-0.09,0.12-0.13,0.26-0.13,0.41c0,0.2,0.07,0.37,0.21,0.5c0.14,0.13,0.34,0.19,0.59,0.19c0.24,0,0.47-0.06,0.69-0.19
		c0.22-0.13,0.39-0.3,0.52-0.53S234.16,83.79,234.23,83.37z"/>
	<path d="M236.98,79.6c0.42,0.91,0.63,1.84,0.63,2.8c0,0.64-0.08,1.24-0.25,1.79c-0.17,0.55-0.42,1.1-0.77,1.64
		c-0.23,0.36-0.59,0.82-1.09,1.4h-0.56c0.31-0.33,0.63-0.8,0.98-1.4c0.35-0.6,0.6-1.19,0.75-1.77c0.15-0.58,0.23-1.16,0.23-1.75
		c0-0.87-0.15-1.77-0.46-2.71H236.98z"/>
</g>
<g>
	<path d="M212.38,70.69l0.77-3.65h-0.64l0.11-0.56h0.64l0.12-0.6c0.06-0.3,0.13-0.51,0.2-0.65s0.18-0.24,0.33-0.33
		c0.15-0.09,0.36-0.13,0.62-0.13c0.18,0,0.45,0.04,0.79,0.12l-0.13,0.63c-0.24-0.06-0.45-0.09-0.61-0.09c-0.14,0-0.25,0.03-0.32,0.1
		c-0.07,0.07-0.14,0.24-0.19,0.5l-0.1,0.45h0.8l-0.12,0.56h-0.8l-0.77,3.65H212.38z"/>
	<path d="M215.58,72.4c-0.42-0.91-0.62-1.84-0.62-2.8c0-0.64,0.08-1.23,0.25-1.79c0.17-0.55,0.42-1.1,0.77-1.64
		c0.23-0.36,0.59-0.82,1.09-1.4h0.56c-0.31,0.33-0.64,0.8-0.98,1.4s-0.6,1.19-0.75,1.77c-0.16,0.58-0.23,1.16-0.23,1.74
		c0,0.87,0.15,1.78,0.46,2.71H215.58z"/>
	<path d="M220.08,70.17c-0.25,0.21-0.49,0.37-0.72,0.47c-0.23,0.1-0.48,0.15-0.74,0.15c-0.39,0-0.7-0.11-0.94-0.34
		s-0.36-0.52-0.36-0.88c0-0.23,0.05-0.44,0.16-0.62c0.11-0.18,0.25-0.33,0.43-0.44c0.18-0.11,0.39-0.19,0.65-0.24
		c0.16-0.03,0.47-0.06,0.92-0.08s0.77-0.07,0.97-0.14c0.06-0.2,0.08-0.36,0.08-0.49c0-0.17-0.06-0.3-0.18-0.39
		c-0.17-0.13-0.41-0.2-0.73-0.2c-0.3,0-0.55,0.07-0.74,0.2c-0.19,0.13-0.33,0.32-0.42,0.57l-0.73-0.06c0.15-0.42,0.38-0.74,0.7-0.96
		c0.32-0.22,0.73-0.33,1.21-0.33c0.52,0,0.93,0.12,1.24,0.37c0.23,0.19,0.35,0.43,0.35,0.72c0,0.22-0.03,0.48-0.1,0.78l-0.23,1.05
		c-0.07,0.33-0.11,0.6-0.11,0.81c0,0.13,0.03,0.32,0.09,0.57h-0.73C220.13,70.55,220.1,70.38,220.08,70.17z M220.35,68.56
		c-0.1,0.04-0.21,0.07-0.32,0.09c-0.11,0.02-0.31,0.04-0.58,0.07c-0.42,0.04-0.71,0.08-0.88,0.14c-0.17,0.06-0.3,0.15-0.39,0.27
		c-0.09,0.12-0.13,0.26-0.13,0.41c0,0.2,0.07,0.37,0.21,0.5c0.14,0.13,0.34,0.19,0.59,0.19c0.24,0,0.47-0.06,0.69-0.19
		c0.22-0.13,0.39-0.3,0.52-0.53S220.28,68.97,220.35,68.56z"/>
	<path d="M223.8,69.75v-1.59h-1.58v-0.67h1.58v-1.58h0.67v1.58h1.58v0.67h-1.58v1.59H223.8z"/>
	<path d="M231.06,70.69h-4.66l2.24-5.45h0.18L231.06,70.69z M226.98,70.32h3.03l-1.51-3.73L226.98,70.32z"/>
	<path d="M231.19,70.69l1.83-2.14l-1.05-2.07h0.79l0.36,0.75c0.13,0.28,0.25,0.55,0.36,0.81l1.21-1.55h0.88l-1.77,2.13l1.06,2.08
		h-0.79l-0.42-0.86c-0.09-0.18-0.19-0.41-0.31-0.68l-1.25,1.53H231.19z"/>
	<path d="M236.87,64.78c0.42,0.91,0.63,1.84,0.63,2.8c0,0.64-0.08,1.24-0.25,1.79c-0.17,0.55-0.42,1.1-0.77,1.64
		c-0.23,0.36-0.59,0.82-1.09,1.4h-0.56c0.31-0.33,0.63-0.8,0.98-1.4c0.35-0.6,0.6-1.19,0.75-1.77c0.15-0.58,0.23-1.16,0.23-1.75
		c0-0.87-0.15-1.77-0.46-2.71H236.87z"/>
</g>
<g>
	<path d="M270.57,88.25h-3.26l1.57-3.82h0.12L270.57,88.25z M267.7,87.99h2.12l-1.06-2.61L267.7,87.99z"/>
	<path d="M270.65,88.25l1.28-1.5l-0.74-1.45h0.56l0.25,0.52c0.09,0.2,0.18,0.38,0.25,0.56l0.85-1.09h0.61l-1.24,1.49l0.74,1.46
		h-0.56l-0.29-0.6c-0.06-0.13-0.13-0.29-0.21-0.47l-0.88,1.07H270.65z"/>
</g>
<g>
	<path d="M279.83,77.17h-3.26l1.57-3.82h0.12L279.83,77.17z M276.96,76.92h2.12l-1.06-2.61L276.96,76.92z"/>
	<path d="M279.92,78.31l0.03-0.47c0.1,0.03,0.21,0.04,0.3,0.04c0.1,0,0.18-0.02,0.25-0.07c0.08-0.06,0.17-0.18,0.27-0.34l0.16-0.29
		l-0.49-2.96h0.49l0.22,1.49c0.04,0.29,0.08,0.59,0.11,0.88l1.32-2.37h0.52l-1.88,3.34c-0.18,0.33-0.34,0.54-0.48,0.65
		s-0.3,0.16-0.49,0.16C280.14,78.37,280.03,78.35,279.92,78.31z"/>
</g>
<path class="st2" d="M273.82,68.91c2.23,3.59,2.79,7.9-0.39,14.46"/>
<g>
	<path d="M69.24,25.74l0.04-0.59c0.13,0.04,0.26,0.06,0.39,0.06c0.13,0,0.24-0.03,0.32-0.09c0.1-0.08,0.22-0.22,0.34-0.43l0.21-0.36
		L69.9,20.6h0.63l0.29,1.87c0.06,0.37,0.11,0.74,0.15,1.11l1.69-2.98h0.67l-2.41,4.2c-0.23,0.41-0.44,0.68-0.62,0.81
		s-0.39,0.2-0.62,0.2C69.52,25.82,69.38,25.79,69.24,25.74z"/>
</g>
<g>
	<g>
		<line class="st5" x1="76.34" y1="133.54" x2="76.34" y2="26.11"/>
		<g>
			<path d="M76.34,27.45l-2.7,1.64L73.58,29l1.75-4.41c0.34-1.54,0.68-3.07,1.01-4.61c0.34,1.54,0.68,3.07,1.01,4.61L79.1,29
				l-0.05,0.09L76.34,27.45z"/>
		</g>
	</g>
</g>
<path class="st1" d="M76.34,111.9"/>
<g>
	<g>
		<line class="st5" x1="0" y1="111.95" x2="181.11" y2="111.95"/>
		<g>
			<path d="M179.76,111.95l-1.64-2.7l0.09-0.06l4.41,1.75c1.54,0.34,3.07,0.68,4.61,1.01c-1.54,0.34-3.07,0.68-4.61,1.01l-4.41,1.75
				l-0.09-0.05L179.76,111.95z"/>
		</g>
	</g>
</g>
<g>
	<path d="M183.36,119.1l1.65-1.88l-0.95-1.83h0.71l0.32,0.66c0.12,0.25,0.23,0.48,0.32,0.71l1.09-1.37h0.79l-1.59,1.87l0.96,1.83
		h-0.71l-0.38-0.75c-0.08-0.16-0.17-0.36-0.27-0.6l-1.13,1.35H183.36z"/>
</g>
<g>
	<path d="M77.94,116.58c0-0.61,0.06-1.09,0.19-1.46c0.13-0.37,0.32-0.65,0.57-0.85s0.57-0.3,0.95-0.3c0.28,0,0.53,0.06,0.74,0.17
		c0.21,0.11,0.39,0.27,0.52,0.48c0.14,0.21,0.25,0.46,0.32,0.76c0.08,0.3,0.12,0.7,0.12,1.21c0,0.6-0.06,1.08-0.19,1.45
		c-0.13,0.37-0.31,0.65-0.57,0.85c-0.25,0.2-0.57,0.3-0.95,0.3c-0.5,0-0.9-0.18-1.19-0.53C78.11,118.23,77.94,117.54,77.94,116.58z
		 M78.6,116.58c0,0.84,0.1,1.4,0.3,1.68c0.2,0.28,0.45,0.42,0.74,0.42s0.54-0.14,0.74-0.42c0.2-0.28,0.3-0.84,0.3-1.68
		c0-0.84-0.1-1.4-0.3-1.68c-0.2-0.28-0.45-0.42-0.75-0.42c-0.29,0-0.53,0.12-0.71,0.37C78.71,115.16,78.6,115.74,78.6,116.58z"/>
</g>
<g>
	<path d="M167.79,71.6h-0.64v-4c-0.15,0.14-0.36,0.29-0.61,0.43c-0.25,0.14-0.48,0.25-0.68,0.32v-0.61c0.36-0.17,0.67-0.37,0.94-0.6
		c0.27-0.24,0.46-0.46,0.57-0.68h0.41V71.6z"/>
	<path d="M171.21,70.78v-1.4h-1.42v-0.59h1.42v-1.39h0.61v1.39h1.42v0.59h-1.42v1.4H171.21z"/>
	<path d="M174.68,69.58c-0.25-0.07-0.44-0.19-0.57-0.34c-0.13-0.15-0.2-0.33-0.2-0.54c0-0.28,0.12-0.51,0.37-0.69
		s0.58-0.27,0.98-0.27c0.35,0,0.65,0.06,0.89,0.19c0.24,0.12,0.36,0.27,0.36,0.45c0,0.09-0.03,0.16-0.08,0.21
		c-0.06,0.05-0.13,0.08-0.22,0.08c-0.09,0-0.16-0.02-0.23-0.07s-0.12-0.13-0.19-0.24c-0.07-0.14-0.15-0.23-0.24-0.29
		c-0.08-0.05-0.2-0.08-0.34-0.08c-0.18,0-0.32,0.06-0.42,0.19c-0.1,0.12-0.15,0.3-0.15,0.53s0.05,0.41,0.15,0.54
		c0.1,0.13,0.23,0.2,0.4,0.2c0.07,0,0.17-0.02,0.3-0.06c0.13-0.04,0.23-0.05,0.29-0.05c0.08,0,0.15,0.02,0.2,0.07
		c0.05,0.05,0.07,0.11,0.07,0.18c0,0.09-0.02,0.15-0.07,0.2c-0.05,0.05-0.11,0.07-0.2,0.07c-0.07,0-0.16-0.02-0.29-0.08
		s-0.22-0.08-0.29-0.08c-0.18,0-0.32,0.07-0.42,0.21c-0.1,0.14-0.15,0.33-0.15,0.56c0,0.26,0.08,0.48,0.23,0.64
		c0.15,0.16,0.35,0.24,0.6,0.24c0.22,0,0.42-0.06,0.58-0.19s0.31-0.32,0.44-0.59l0.23,0.11c-0.14,0.34-0.33,0.59-0.58,0.75
		s-0.55,0.25-0.91,0.25c-0.41,0-0.74-0.1-0.99-0.31s-0.38-0.48-0.38-0.81c0-0.24,0.07-0.45,0.21-0.62
		C174.21,69.79,174.41,69.67,174.68,69.58z"/>
</g>
<rect x="5.15" y="69" class="st6" width="158.59" height="21.65"/>
<line class="st7" x1="5.02" y1="90.65" x2="163.94" y2="90.65"/>
<line class="st1" x1="4.87" y1="79.72" x2="163.94" y2="79.72"/>
<line class="st7" x1="4.95" y1="69" x2="163.87" y2="69"/>
<path class="st8" d="M7.1,80.72c49.1,2.78,60.46,4.77,65.33,44.49"/>
<path class="st8" d="M145.1,79.3C96,76.51,84.63,74.53,79.76,34.81"/>
<g>
	<path d="M167.79,81.94h-0.64v-4c-0.15,0.14-0.36,0.29-0.61,0.43c-0.25,0.14-0.48,0.25-0.68,0.32v-0.61
		c0.36-0.17,0.67-0.37,0.94-0.6c0.27-0.24,0.46-0.46,0.57-0.68h0.41V81.94z"/>
</g>
<g>
	<path d="M167.79,92.66h-0.64v-4c-0.15,0.14-0.36,0.29-0.61,0.43c-0.25,0.14-0.48,0.25-0.68,0.32v-0.61
		c0.36-0.17,0.67-0.37,0.94-0.6c0.27-0.24,0.46-0.46,0.57-0.68h0.41V92.66z"/>
	<path d="M169.37,91.13V90.5h1.97v0.63H169.37z"/>
	<path d="M172.84,90.64c-0.25-0.07-0.44-0.19-0.57-0.34c-0.13-0.15-0.2-0.33-0.2-0.54c0-0.28,0.12-0.51,0.37-0.69
		s0.58-0.27,0.98-0.27c0.35,0,0.65,0.06,0.89,0.19c0.24,0.12,0.36,0.27,0.36,0.45c0,0.09-0.03,0.16-0.08,0.21
		c-0.06,0.05-0.13,0.08-0.22,0.08c-0.09,0-0.16-0.02-0.23-0.07s-0.12-0.13-0.19-0.24c-0.07-0.14-0.15-0.23-0.24-0.29
		c-0.08-0.05-0.2-0.08-0.34-0.08c-0.18,0-0.32,0.06-0.42,0.19c-0.1,0.12-0.15,0.3-0.15,0.53s0.05,0.41,0.15,0.54
		c0.1,0.13,0.23,0.2,0.4,0.2c0.07,0,0.17-0.02,0.3-0.06c0.13-0.04,0.23-0.05,0.29-0.05c0.08,0,0.15,0.02,0.2,0.07
		c0.05,0.05,0.07,0.11,0.07,0.18c0,0.09-0.02,0.15-0.07,0.2c-0.05,0.05-0.11,0.07-0.2,0.07c-0.07,0-0.16-0.02-0.29-0.08
		s-0.22-0.08-0.29-0.08c-0.18,0-0.32,0.07-0.42,0.21c-0.1,0.14-0.15,0.33-0.15,0.56c0,0.26,0.08,0.48,0.23,0.64
		c0.15,0.16,0.35,0.24,0.6,0.24c0.22,0,0.42-0.06,0.58-0.19s0.31-0.32,0.44-0.59l0.23,0.11c-0.14,0.34-0.33,0.59-0.58,0.75
		s-0.55,0.25-0.91,0.25c-0.41,0-0.74-0.1-0.99-0.31s-0.38-0.48-0.38-0.81c0-0.24,0.07-0.45,0.21-0.62
		C172.37,90.85,172.58,90.72,172.84,90.64z"/>
</g>
<g>
	<path d="M80.43,86.31h-0.64v-4c-0.15,0.14-0.36,0.29-0.61,0.43c-0.25,0.14-0.48,0.25-0.68,0.32v-0.61c0.36-0.17,0.67-0.37,0.94-0.6
		c0.27-0.24,0.46-0.46,0.57-0.68h0.41V86.31z"/>
</g>
<g>
	<path d="M86.03,54.56l0.04-0.59c0.13,0.04,0.26,0.06,0.39,0.06c0.13,0,0.24-0.03,0.32-0.09c0.1-0.08,0.22-0.22,0.34-0.43l0.21-0.36
		l-0.63-3.72h0.63l0.29,1.87c0.06,0.37,0.11,0.74,0.15,1.11l1.69-2.98h0.67l-2.41,4.2c-0.23,0.41-0.44,0.68-0.62,0.81
		s-0.39,0.2-0.62,0.2C86.32,54.64,86.17,54.61,86.03,54.56z"/>
</g>
<g>
	<path d="M95.16,51.09h-3.45v-0.59h3.45V51.09z M95.16,52.65h-3.45v-0.59h3.45V52.65z"/>
</g>
<g>
	<path d="M99.81,49.93l1.65-1.88l-0.95-1.83h0.71l0.32,0.66c0.12,0.25,0.23,0.48,0.32,0.71l1.09-1.37h0.79l-1.59,1.87l0.96,1.83
		h-0.71l-0.38-0.75c-0.08-0.16-0.17-0.36-0.27-0.6l-1.13,1.35H99.81z"/>
	<path d="M105.31,49.1v-1.4h-1.42v-0.59h1.42v-1.39h0.61v1.39h1.42v0.59h-1.42v1.4H105.31z"/>
	<path d="M110.46,49.93h-0.64v-4c-0.15,0.14-0.36,0.29-0.61,0.43c-0.25,0.14-0.48,0.25-0.68,0.32v-0.61
		c0.36-0.17,0.67-0.37,0.94-0.6c0.27-0.24,0.46-0.46,0.57-0.68h0.41V49.93z"/>
</g>
<g>
	<path d="M103.87,56.88l1.65-1.88l-0.95-1.83h0.71l0.32,0.66c0.12,0.25,0.23,0.48,0.32,0.71l1.09-1.37h0.79l-1.59,1.87l0.96,1.83
		h-0.71l-0.38-0.75c-0.08-0.16-0.17-0.36-0.27-0.6l-1.13,1.35H103.87z"/>
</g>
<line class="st9" x1="98.61" y1="51.52" x2="112.41" y2="51.52"/>
<g>
	<path d="M345.05,27.44l0.05-0.71c0.16,0.04,0.31,0.07,0.45,0.07c0.15,0,0.28-0.03,0.37-0.1c0.12-0.09,0.25-0.26,0.4-0.52l0.24-0.43
		l-0.74-4.43h0.74l0.33,2.23c0.07,0.44,0.12,0.88,0.17,1.32l1.97-3.55h0.79l-2.81,5c-0.27,0.49-0.51,0.81-0.72,0.97
		c-0.21,0.16-0.45,0.24-0.73,0.24C345.39,27.53,345.22,27.5,345.05,27.44z"/>
</g>
<g>
	<g>
		<line class="st5" x1="352.55" y1="132.3" x2="352.55" y2="26.99"/>
		<g>
			<path d="M352.55,28.34l-2.7,1.64l-0.06-0.09l1.75-4.41c0.34-1.54,0.68-3.07,1.01-4.61c0.34,1.54,0.68,3.07,1.01,4.61l1.75,4.41
				l-0.05,0.09L352.55,28.34z"/>
		</g>
	</g>
</g>
<path class="st1" d="M352.55,77.83"/>
<g>
	<g>
		<line class="st5" x1="323" y1="77.87" x2="457.28" y2="77.87"/>
		<g>
			<path d="M455.93,77.87l-1.64-2.7l0.09-0.06l4.41,1.75c1.54,0.34,3.07,0.68,4.61,1.01c-1.54,0.34-3.07,0.68-4.61,1.01l-4.41,1.75
				l-0.09-0.05L455.93,77.87z"/>
		</g>
	</g>
</g>
<g>
	<path d="M458.72,85.82l1.89-2.2l-1.08-2.14h0.82l0.37,0.77c0.14,0.29,0.26,0.57,0.37,0.83l1.25-1.6h0.9l-1.82,2.19l1.1,2.15h-0.82
		l-0.43-0.88c-0.09-0.19-0.2-0.42-0.31-0.7l-1.29,1.58H458.72z"/>
</g>
<g>
	<path d="M348.25,81.92c0-0.53,0.05-0.96,0.16-1.28s0.27-0.57,0.49-0.75s0.49-0.26,0.81-0.26c0.24,0,0.45,0.05,0.63,0.15
		c0.18,0.1,0.33,0.24,0.45,0.42c0.12,0.18,0.21,0.41,0.28,0.67s0.1,0.62,0.1,1.06c0,0.53-0.05,0.95-0.16,1.28
		c-0.11,0.32-0.27,0.57-0.49,0.75c-0.22,0.18-0.49,0.27-0.82,0.27c-0.43,0-0.77-0.16-1.02-0.47
		C348.4,83.38,348.25,82.77,348.25,81.92z M348.82,81.92c0,0.74,0.09,1.23,0.26,1.47s0.39,0.37,0.64,0.37s0.47-0.12,0.64-0.37
		s0.26-0.74,0.26-1.47c0-0.74-0.09-1.23-0.26-1.48c-0.17-0.24-0.39-0.37-0.65-0.37c-0.25,0-0.46,0.11-0.61,0.32
		C348.92,80.68,348.82,81.19,348.82,81.92z"/>
</g>
<g>
	<path d="M446.54,50.96v0.53h-2.97c0-0.13,0.02-0.26,0.06-0.38c0.08-0.2,0.2-0.4,0.36-0.6s0.41-0.42,0.72-0.68
		c0.49-0.4,0.82-0.72,0.99-0.95c0.17-0.23,0.26-0.46,0.26-0.66c0-0.22-0.08-0.4-0.23-0.55c-0.16-0.15-0.36-0.23-0.61-0.23
		c-0.27,0-0.48,0.08-0.64,0.24c-0.16,0.16-0.24,0.38-0.24,0.66l-0.57-0.06c0.04-0.42,0.18-0.75,0.44-0.97
		c0.25-0.22,0.59-0.33,1.02-0.33c0.43,0,0.77,0.12,1.03,0.36c0.25,0.24,0.38,0.54,0.38,0.89c0,0.18-0.04,0.36-0.11,0.53
		c-0.07,0.17-0.2,0.36-0.37,0.55s-0.46,0.46-0.85,0.79c-0.33,0.28-0.54,0.47-0.64,0.57c-0.09,0.1-0.17,0.2-0.23,0.3H446.54z"/>
	<path d="M448.66,50.76v-1.23h-1.22v-0.52h1.22v-1.22h0.52v1.22h1.22v0.52h-1.22v1.23H448.66z"/>
	<path d="M451.64,49.71c-0.21-0.06-0.38-0.16-0.49-0.3c-0.12-0.13-0.17-0.29-0.17-0.47c0-0.25,0.11-0.45,0.32-0.61
		c0.21-0.16,0.5-0.24,0.84-0.24c0.3,0,0.56,0.05,0.77,0.16c0.21,0.11,0.31,0.24,0.31,0.4c0,0.08-0.02,0.14-0.07,0.19
		c-0.05,0.05-0.11,0.07-0.19,0.07c-0.08,0-0.14-0.02-0.19-0.06c-0.05-0.04-0.11-0.11-0.16-0.21c-0.06-0.12-0.13-0.21-0.2-0.25
		c-0.07-0.05-0.17-0.07-0.29-0.07c-0.16,0-0.27,0.06-0.36,0.17c-0.08,0.11-0.13,0.26-0.13,0.47c0,0.2,0.04,0.36,0.13,0.47
		c0.08,0.12,0.2,0.17,0.34,0.17c0.06,0,0.14-0.02,0.26-0.05c0.11-0.03,0.19-0.05,0.25-0.05c0.07,0,0.13,0.02,0.17,0.06
		c0.04,0.04,0.06,0.09,0.06,0.16c0,0.08-0.02,0.13-0.06,0.18c-0.04,0.04-0.1,0.06-0.17,0.06c-0.06,0-0.14-0.02-0.25-0.07
		c-0.11-0.04-0.19-0.07-0.25-0.07c-0.15,0-0.27,0.06-0.36,0.18c-0.09,0.12-0.13,0.29-0.13,0.5c0,0.23,0.06,0.42,0.2,0.56
		c0.13,0.14,0.3,0.21,0.52,0.21c0.19,0,0.36-0.06,0.5-0.17c0.14-0.11,0.27-0.28,0.37-0.52l0.2,0.1c-0.12,0.3-0.29,0.52-0.5,0.66
		c-0.21,0.15-0.47,0.22-0.79,0.22c-0.35,0-0.63-0.09-0.85-0.27c-0.22-0.18-0.33-0.42-0.33-0.71c0-0.21,0.06-0.39,0.18-0.54
		C451.24,49.9,451.41,49.79,451.64,49.71z"/>
</g>
<g>
	<rect x="335.23" y="49.73" class="st6" width="106.69" height="19.03"/>
	<line class="st7" x1="335.15" y1="68.75" x2="442.05" y2="68.75"/>
	<line class="st1" x1="335.05" y1="59.15" x2="442.05" y2="59.15"/>
	<line class="st7" x1="335.1" y1="49.73" x2="442" y2="49.73"/>
</g>
<path class="st8" d="M429.31,59.5c-31.76,0.6-76.58,13.86-85.54,65.29"/>
<g>
	<path d="M446.41,70.39v0.53h-2.97c0-0.13,0.02-0.26,0.06-0.38c0.08-0.2,0.2-0.4,0.36-0.6s0.41-0.42,0.72-0.68
		c0.49-0.4,0.82-0.72,0.99-0.95c0.17-0.23,0.26-0.46,0.26-0.66c0-0.22-0.08-0.4-0.23-0.55c-0.16-0.15-0.36-0.23-0.61-0.23
		c-0.27,0-0.48,0.08-0.64,0.24c-0.16,0.16-0.24,0.38-0.24,0.66l-0.57-0.06c0.04-0.42,0.18-0.75,0.44-0.97
		c0.25-0.22,0.59-0.33,1.02-0.33c0.43,0,0.77,0.12,1.03,0.36c0.25,0.24,0.38,0.54,0.38,0.89c0,0.18-0.04,0.36-0.11,0.53
		c-0.07,0.17-0.2,0.36-0.37,0.55s-0.46,0.46-0.85,0.79c-0.33,0.28-0.54,0.47-0.64,0.57c-0.09,0.1-0.17,0.2-0.23,0.3H446.41z"/>
	<path d="M446.94,69.57v-0.56h1.7v0.56H446.94z"/>
	<path d="M449.93,69.14c-0.21-0.06-0.38-0.16-0.49-0.3c-0.12-0.13-0.17-0.29-0.17-0.47c0-0.25,0.11-0.45,0.32-0.61
		c0.21-0.16,0.5-0.24,0.84-0.24c0.3,0,0.56,0.05,0.77,0.16c0.21,0.11,0.31,0.24,0.31,0.4c0,0.08-0.02,0.14-0.07,0.19
		c-0.05,0.05-0.11,0.07-0.19,0.07c-0.08,0-0.14-0.02-0.19-0.06c-0.05-0.04-0.11-0.11-0.16-0.21c-0.06-0.12-0.13-0.21-0.2-0.25
		c-0.07-0.05-0.17-0.07-0.29-0.07c-0.16,0-0.27,0.06-0.36,0.17c-0.08,0.11-0.13,0.26-0.13,0.47c0,0.2,0.04,0.36,0.13,0.47
		c0.08,0.12,0.2,0.17,0.34,0.17c0.06,0,0.14-0.02,0.26-0.05c0.11-0.03,0.19-0.05,0.25-0.05c0.07,0,0.13,0.02,0.17,0.06
		c0.04,0.04,0.06,0.09,0.06,0.16c0,0.08-0.02,0.13-0.06,0.18c-0.04,0.04-0.1,0.06-0.17,0.06c-0.06,0-0.14-0.02-0.25-0.07
		c-0.11-0.04-0.19-0.07-0.25-0.07c-0.15,0-0.27,0.06-0.36,0.18c-0.09,0.12-0.13,0.29-0.13,0.5c0,0.23,0.06,0.42,0.2,0.56
		c0.13,0.14,0.3,0.21,0.52,0.21c0.19,0,0.36-0.06,0.5-0.17c0.14-0.11,0.27-0.28,0.37-0.52l0.2,0.1c-0.12,0.3-0.29,0.52-0.5,0.66
		c-0.21,0.15-0.47,0.22-0.79,0.22c-0.35,0-0.63-0.09-0.85-0.27c-0.22-0.18-0.33-0.42-0.33-0.71c0-0.21,0.06-0.39,0.18-0.54
		C449.53,69.33,449.7,69.21,449.93,69.14z"/>
</g>
<g>
	<path d="M350.98,60.48v0.53h-2.97c0-0.13,0.02-0.26,0.06-0.38c0.08-0.2,0.2-0.4,0.36-0.6s0.41-0.42,0.72-0.68
		c0.49-0.4,0.82-0.72,0.99-0.95c0.17-0.23,0.26-0.46,0.26-0.66c0-0.22-0.08-0.4-0.23-0.55c-0.16-0.15-0.36-0.23-0.61-0.23
		c-0.27,0-0.48,0.08-0.64,0.24c-0.16,0.16-0.24,0.38-0.24,0.66l-0.57-0.06c0.04-0.42,0.18-0.75,0.44-0.97
		c0.25-0.22,0.59-0.33,1.02-0.33c0.43,0,0.77,0.12,1.03,0.36c0.25,0.24,0.38,0.54,0.38,0.89c0,0.18-0.04,0.36-0.11,0.53
		c-0.07,0.17-0.2,0.36-0.37,0.55s-0.46,0.46-0.85,0.79c-0.33,0.28-0.54,0.47-0.64,0.57c-0.09,0.1-0.17,0.2-0.23,0.3H350.98z"/>
</g>
<line class="st10" x1="343.25" y1="131.25" x2="343.25" y2="31.14"/>
<g>
	<path d="M336.81,82.79v-0.56h1.7v0.56H336.81z"/>
	<path d="M341.05,84.14h-0.55v-3.52c-0.13,0.13-0.31,0.25-0.52,0.38s-0.41,0.22-0.58,0.29v-0.53c0.31-0.15,0.58-0.32,0.81-0.53
		c0.23-0.21,0.4-0.41,0.49-0.6h0.36V84.14z"/>
</g>
<g>
	<path d="M372.05,82.96l0.55-0.07c0.06,0.31,0.17,0.54,0.32,0.68s0.34,0.21,0.56,0.21c0.26,0,0.48-0.09,0.66-0.27
		c0.18-0.18,0.27-0.4,0.27-0.67c0-0.25-0.08-0.46-0.25-0.63s-0.38-0.25-0.63-0.25c-0.1,0-0.23,0.02-0.39,0.06l0.06-0.48
		c0.04,0,0.07,0.01,0.09,0.01c0.24,0,0.45-0.06,0.63-0.18c0.19-0.12,0.28-0.31,0.28-0.57c0-0.2-0.07-0.37-0.21-0.5
		c-0.14-0.13-0.31-0.2-0.53-0.2c-0.21,0-0.39,0.07-0.54,0.2c-0.14,0.14-0.24,0.34-0.28,0.61l-0.55-0.1
		c0.07-0.37,0.22-0.66,0.46-0.86s0.54-0.31,0.89-0.31c0.25,0,0.47,0.05,0.68,0.16c0.21,0.11,0.36,0.25,0.47,0.43
		s0.17,0.38,0.17,0.58c0,0.19-0.05,0.37-0.16,0.53s-0.26,0.29-0.46,0.38c0.27,0.06,0.47,0.19,0.62,0.38
		c0.15,0.19,0.22,0.44,0.22,0.73c0,0.39-0.14,0.73-0.43,1c-0.29,0.27-0.65,0.41-1.09,0.41c-0.39,0-0.72-0.12-0.98-0.35
		C372.24,83.63,372.09,83.33,372.05,82.96z"/>
	<path d="M375.28,84.22l1.3-4.65h0.44l-1.3,4.65H375.28z"/>
	<path d="M380.19,83.61v0.53h-2.97c0-0.13,0.02-0.26,0.06-0.38c0.08-0.2,0.2-0.4,0.36-0.6s0.41-0.42,0.72-0.68
		c0.49-0.4,0.82-0.72,0.99-0.95c0.17-0.23,0.26-0.46,0.26-0.66c0-0.22-0.08-0.4-0.23-0.55c-0.16-0.15-0.36-0.23-0.61-0.23
		c-0.27,0-0.48,0.08-0.64,0.24c-0.16,0.16-0.24,0.38-0.24,0.66l-0.57-0.06c0.04-0.42,0.18-0.75,0.44-0.97
		c0.25-0.22,0.59-0.33,1.02-0.33c0.43,0,0.77,0.12,1.03,0.36c0.25,0.24,0.38,0.54,0.38,0.89c0,0.18-0.04,0.36-0.11,0.53
		c-0.07,0.17-0.2,0.36-0.37,0.55s-0.46,0.46-0.85,0.79c-0.33,0.28-0.54,0.47-0.64,0.57c-0.09,0.1-0.17,0.2-0.23,0.3H380.19z"/>
</g>
<circle class="st11" cx="370.88" cy="77.83" r="0.56"/>
<g>
	<path d="M346.1,98.07v-0.56h1.7v0.56H346.1z"/>
	<path d="M348.25,98.23l0.55-0.07c0.06,0.31,0.17,0.54,0.32,0.68s0.34,0.21,0.56,0.21c0.26,0,0.48-0.09,0.66-0.27
		c0.18-0.18,0.27-0.4,0.27-0.67c0-0.25-0.08-0.46-0.25-0.63s-0.38-0.25-0.63-0.25c-0.1,0-0.23,0.02-0.39,0.06l0.06-0.48
		c0.04,0,0.07,0.01,0.09,0.01c0.24,0,0.45-0.06,0.63-0.18c0.19-0.12,0.28-0.31,0.28-0.57c0-0.2-0.07-0.37-0.21-0.5
		c-0.14-0.13-0.31-0.2-0.53-0.2c-0.21,0-0.39,0.07-0.54,0.2c-0.14,0.14-0.24,0.34-0.28,0.61l-0.55-0.1
		c0.07-0.37,0.22-0.66,0.46-0.86s0.54-0.31,0.89-0.31c0.25,0,0.47,0.05,0.68,0.16c0.21,0.11,0.36,0.25,0.47,0.43
		s0.17,0.38,0.17,0.58c0,0.19-0.05,0.37-0.16,0.53s-0.26,0.29-0.46,0.38c0.27,0.06,0.47,0.19,0.62,0.38
		c0.15,0.19,0.22,0.44,0.22,0.73c0,0.39-0.14,0.73-0.43,1c-0.29,0.27-0.65,0.41-1.09,0.41c-0.39,0-0.72-0.12-0.98-0.35
		C348.44,98.91,348.29,98.6,348.25,98.23z"/>
</g>
<circle class="st11" cx="352.5" cy="99.22" r="0.56"/>
<g>
	<path d="M446.54,60.74v0.53h-2.97c0-0.13,0.02-0.26,0.06-0.38c0.08-0.2,0.2-0.4,0.36-0.6s0.41-0.42,0.72-0.68
		c0.49-0.4,0.82-0.72,0.99-0.95c0.17-0.23,0.26-0.46,0.26-0.66c0-0.22-0.08-0.4-0.23-0.55c-0.16-0.15-0.36-0.23-0.61-0.23
		c-0.27,0-0.48,0.08-0.64,0.24c-0.16,0.16-0.24,0.38-0.24,0.66l-0.57-0.06c0.04-0.42,0.18-0.75,0.44-0.97
		c0.25-0.22,0.59-0.33,1.02-0.33c0.43,0,0.77,0.12,1.03,0.36c0.25,0.24,0.38,0.54,0.38,0.89c0,0.18-0.04,0.36-0.11,0.53
		c-0.07,0.17-0.2,0.36-0.37,0.55s-0.46,0.46-0.85,0.79c-0.33,0.28-0.54,0.47-0.64,0.57c-0.09,0.1-0.17,0.2-0.23,0.3H446.54z"/>
</g>
<g>
	<g>
		<path d="M379.91,58.68l0.03-0.52c0.11,0.03,0.23,0.05,0.33,0.05c0.11,0,0.2-0.03,0.27-0.08c0.09-0.07,0.19-0.19,0.29-0.38
			l0.18-0.32l-0.54-3.27h0.55l0.25,1.65c0.05,0.33,0.09,0.65,0.13,0.98l1.46-2.62h0.58l-2.08,3.69c-0.2,0.36-0.38,0.6-0.53,0.71
			c-0.16,0.12-0.33,0.18-0.54,0.18C380.16,58.75,380.03,58.73,379.91,58.68z"/>
	</g>
	<g>
		<path class="st12" d="M387.77,55.63h-2.97v-0.52h2.97V55.63z M387.77,57h-2.97v-0.52h2.97V57z"/>
	</g>
	<g>
		<path class="st12" d="M392.99,61.77l1.42-1.65l-0.81-1.6h0.61l0.28,0.58c0.1,0.22,0.19,0.42,0.28,0.62l0.94-1.2h0.68l-1.37,1.65
			l0.82,1.61h-0.61l-0.33-0.66c-0.07-0.14-0.15-0.32-0.24-0.52l-0.97,1.19H392.99z"/>
		<path class="st12" d="M397.72,61.04v-1.23h-1.22v-0.52h1.22v-1.22h0.52v1.22h1.22v0.52h-1.22v1.23H397.72z"/>
		<path class="st12" d="M402.15,61.77h-0.55v-3.52c-0.13,0.13-0.31,0.25-0.52,0.38s-0.41,0.22-0.58,0.29v-0.53
			c0.31-0.15,0.58-0.32,0.81-0.53c0.23-0.21,0.4-0.41,0.49-0.6h0.36V61.77z"/>
	</g>
	<line class="st9" x1="390.73" y1="56.01" x2="404.7" y2="56.01"/>
	<g>
		<path d="M394.15,54.11v0.53h-2.97c0-0.13,0.02-0.26,0.06-0.38c0.08-0.2,0.2-0.4,0.36-0.6s0.41-0.42,0.72-0.68
			c0.49-0.4,0.82-0.72,0.99-0.95c0.17-0.23,0.26-0.46,0.26-0.66c0-0.22-0.08-0.4-0.23-0.55c-0.16-0.15-0.36-0.23-0.61-0.23
			c-0.27,0-0.48,0.08-0.64,0.24c-0.16,0.16-0.24,0.38-0.24,0.66l-0.57-0.06c0.04-0.42,0.18-0.75,0.44-0.97
			c0.25-0.22,0.59-0.33,1.02-0.33c0.43,0,0.77,0.12,1.03,0.36c0.25,0.24,0.38,0.54,0.38,0.89c0,0.18-0.04,0.36-0.11,0.53
			c-0.07,0.17-0.2,0.36-0.37,0.55s-0.46,0.46-0.85,0.79c-0.33,0.28-0.54,0.47-0.64,0.57c-0.09,0.1-0.17,0.2-0.23,0.3H394.15z"/>
		<path d="M394.47,54.64l1.42-1.65l-0.81-1.6h0.61l0.28,0.58c0.1,0.22,0.19,0.42,0.28,0.62l0.94-1.2h0.68l-1.37,1.65l0.82,1.61
			h-0.61l-0.33-0.66c-0.07-0.14-0.15-0.32-0.24-0.52l-0.97,1.19H394.47z"/>
		<path d="M399.42,53.91v-1.23h-1.22v-0.52h1.22v-1.22h0.52v1.22h1.22v0.52h-1.22v1.23H399.42z"/>
		<path d="M403.64,54.64h-0.55v-3.52c-0.13,0.13-0.31,0.25-0.52,0.38s-0.41,0.22-0.58,0.29v-0.53c0.31-0.15,0.58-0.32,0.81-0.53
			c0.23-0.21,0.4-0.41,0.49-0.6h0.36V54.64z"/>
	</g>
</g>
<g>
</g>
<g>
</g>
<g>
</g>
<g>
</g>
<g>
</g>
<g>
</g>
<g>
</g>
</svg>
